<svg xmlns="http://www.w3.org/2000/svg" width="1713.275" height="1970.473" viewBox="0 0 1713.275 1970.473"><defs><style>.a{fill:#fff;}</style></defs><path class="a" d="M1360.813,1175.959c108.35-131.177,253.267-129.94,331.821-186.866,77.2-56.926,88.034-172.016,109.7-298.243,23.024-126.227,56.884-263.592,28.442-397.244-29.8-132.415-123.248-261.117-254.622-252.454S1276.842,194.6,1108.9,194.6,773.017,51.052,583.406,11.451,181.158,37.439,83.643,169.854C-15.226,302.269-.328,502.748,2.381,701.988,3.735,901.23-7.1,1099.233,145.944,1145.021c154.4,44.551,472.675-63.114,660.932,25.988s245.141,376.207,308.8,387.344C1180.682,1569.491,1252.464,1307.137,1360.813,1175.959Z" transform="matrix(0.087, 0.996, -0.996, 0.087, 1552.766, 0)"/></svg>